<svg width="1200" height="427.00000000000006" xmlns="http://www.w3.org/2000/svg" preserveAspectRatio="xMidYMid meet" version="1.0" viewBox="0 0 1200 427">

 <g>
  <title>Layer 1</title>
  <g id="svg_1" fill="#000000" transform="translate(0 1200) scale(0.1 -0.1)">
   <path id="svg_2" d="m1125,11911.95239c-15,-17 -20,-46 -26,-149c-21,-351 -136,-660 -454,-1226c-263,-467 -342,-627 -408,-825c-59,-179 -72,-255 -71,-440c1,-146 4,-177 27,-265c78,-294 329,-627 663,-881c77,-59 111,-67 144,-34c26,26 25,52 -5,114c-43,90 -59,192 -60,386c0,97 6,215 13,265c48,318 146,595 284,801c54,81 146,194 158,194c4,0 10,-39 14,-87c13,-177 83,-454 166,-663c102,-256 238,-470 300,-470c50,0 296,114 393,182l27,19l0,-34c0,-93 -60,-353 -116,-500c-39,-101 -42,-137 -16,-160c31,-28 73,-20 152,28c470,290 781,908 757,1505c-11,293 -99,558 -265,805c-33,50 -82,114 -109,143c-54,57 -84,66 -123,34c-23,-19 -24,-21 -14,-147c10,-144 -51,-374 -162,-604l-60,-126l0,225c0,237 -9,333 -51,535c-133,644 -523,1166 -1022,1369c-78,31 -112,33 -136,6z"/>
   <path id="svg_3" d="m6326,11800.95239c-55,-13 -102,-44 -115,-77c-9,-21 -11,-351 -8,-1303c4,-1380 1,-1317 57,-1460c96,-245 357,-365 685,-315c115,17 160,34 209,76c64,57 69,125 20,280c-15,48 -36,90 -54,110c-26,28 -32,30 -67,23c-59,-12 -139,-7 -171,13c-66,38 -62,-43 -62,1315c0,1027 -2,1235 -14,1263c-10,24 -28,40 -62,57c-45,22 -63,24 -214,26c-91,1 -183,-2 -204,-8z"/>
   <path id="svg_4" d="m4937,10870.95239c-462,-60 -721,-303 -819,-767c-20,-94 -23,-136 -23,-352c0,-257 10,-348 56,-496c117,-378 402,-583 853,-613c271,-18 585,34 742,124c60,35 111,96 119,142c16,95 -133,333 -208,333c-13,0 -52,-12 -88,-26c-188,-75 -359,-105 -487,-84c-98,16 -155,43 -213,100c-86,86 -134,234 -145,450c-16,313 54,546 194,642c72,49 147,68 276,68c127,0 212,-19 334,-76c117,-53 139,-47 215,58c122,172 135,257 51,341c-121,121 -538,197 -857,156z"/>
   <path id="svg_5" d="m8200,10875.95239c-247,-38 -414,-112 -551,-248c-218,-214 -310,-532 -288,-996c23,-473 231,-799 591,-929c208,-75 502,-85 742,-26c344,85 571,339 651,729c42,205 39,524 -5,729c-107,494 -445,751 -979,746c-75,-1 -147,-3 -161,-5zm317,-514c95,-47 142,-105 183,-225c64,-187 66,-548 4,-739c-42,-127 -101,-202 -193,-244c-46,-21 -71,-26 -141,-27c-73,0 -94,4 -148,29c-160,74 -242,278 -242,606c0,289 68,493 192,575c63,42 106,54 199,54c76,1 93,-2 146,-29z"/>
   <path id="svg_6" d="m10490,10870.95239c-116,-13 -173,-27 -267,-63c-221,-84 -363,-229 -417,-426c-28,-101 -38,-223 -26,-331c13,-121 31,-183 78,-274c38,-73 148,-194 210,-230c17,-11 32,-23 32,-27c0,-4 -27,-25 -59,-47c-58,-39 -115,-101 -141,-150c-24,-47 -41,-144 -34,-196c13,-102 65,-195 130,-236c19,-11 34,-27 34,-34c0,-7 -35,-30 -77,-51c-136,-67 -246,-196 -282,-329c-16,-58 -13,-191 4,-260c44,-166 160,-273 391,-360c185,-70 637,-94 904,-49c247,42 439,131 575,268c132,132 176,240 176,427c-1,210 -67,337 -231,443c-146,94 -284,136 -595,181c-339,48 -408,71 -430,143c-11,37 13,81 59,104c34,18 73,23 221,33c199,14 293,32 405,80c265,112 392,294 416,595c6,79 -8,164 -42,252c-10,26 -16,49 -14,51c3,2 41,0 86,-4c133,-13 165,7 185,116c14,73 6,243 -13,281c-7,15 -26,37 -41,48c-27,20 -44,21 -425,28c-218,3 -431,11 -472,17c-86,11 -245,12 -340,0zm311,-455c68,-23 113,-60 144,-115c28,-50 30,-61 30,-160c0,-100 -2,-108 -30,-155c-58,-93 -175,-143 -308,-131c-86,8 -130,22 -179,60c-61,47 -92,114 -97,209c-6,135 40,223 143,275c81,41 208,48 297,17zm-49,-1759c208,-25 304,-56 348,-112c18,-23 21,-37 18,-81c-4,-43 -11,-59 -38,-87c-76,-78 -209,-111 -420,-102c-274,11 -400,71 -400,192c0,69 56,129 185,199c33,18 94,16 307,-9z"/>
  </g>
 </g>
</svg>